<?xml version="1.0" encoding="UTF-8" standalone="no"?>
<!-- Created with Inkscape (http://www.inkscape.org/) -->

<svg
   width="74.681633mm"
   height="34.381721mm"
   viewBox="0 0 74.681634 34.381721"
   version="1.1"
   id="svg4635"
   inkscape:version="1.1.1 (3bf5ae0d25, 2021-09-20)"
   sodipodi:docname="logo_letras.svg"
   xmlns:inkscape="http://www.inkscape.org/namespaces/inkscape"
   xmlns:sodipodi="http://sodipodi.sourceforge.net/DTD/sodipodi-0.dtd"
   xmlns="http://www.w3.org/2000/svg"
   xmlns:svg="http://www.w3.org/2000/svg">
  <sodipodi:namedview
     id="namedview4637"
     pagecolor="#ffffff"
     bordercolor="#666666"
     borderopacity="1.0"
     inkscape:pageshadow="2"
     inkscape:pageopacity="0.0"
     inkscape:pagecheckerboard="0"
     inkscape:document-units="mm"
     showgrid="false"
     fit-margin-top="0"
     fit-margin-left="0"
     fit-margin-right="0"
     fit-margin-bottom="0"
     inkscape:zoom="0.74653479"
     inkscape:cx="212.98405"
     inkscape:cy="101.13393"
     inkscape:window-width="1920"
     inkscape:window-height="1015"
     inkscape:window-x="0"
     inkscape:window-y="34"
     inkscape:window-maximized="1"
     inkscape:current-layer="layer1" />
  <defs
     id="defs4632" />
  <g
     inkscape:label="Camada 1"
     inkscape:groupmode="layer"
     id="layer1"
     transform="translate(-48.396944,-122.09434)">
    <g
       id="g5190"
       transform="translate(-46.145222)"
       style="fill:#ffffff">
      <path
         d="m 94.542166,130.09625 v -7.91398 h 2.325343 q 0.713235,0 1.152901,0.26381 0.449437,0.26379 0.654613,0.77185 0.214949,0.49828 0.214949,1.21153 0,0.77186 -0.2638,1.25061 -0.2638,0.46897 -0.742547,0.68391 -0.468976,0.21494 -1.113819,0.21494 h -0.781628 v 3.51733 z m 1.446012,-4.53344 h 0.547139 q 0.390814,0 0.605762,-0.10747 0.224718,-0.11724 0.30288,-0.36151 0.08793,-0.25402 0.08793,-0.67414 0,-0.4299 -0.06839,-0.69371 -0.05862,-0.27356 -0.273569,-0.40058 -0.205177,-0.12701 -0.654614,-0.12701 h -0.547139 z"
         style="font-style:normal;font-variant:normal;font-weight:500;font-stretch:normal;font-size:56.3021px;line-height:1.25;font-family:Oswald;-inkscape-font-specification:'Oswald Medium';text-align:center;text-anchor:middle;fill:#ffffff;stroke-width:0.244258"
         id="path3964" />
      <path
         d="M 99.597711,130.09625 V 124.449 h 1.328769 v 0.86956 q 0.29311,-0.49829 0.58622,-0.71324 0.29311,-0.22471 0.64484,-0.22471 0.0586,0 0.0977,0.01 0.0489,0 0.10748,0.01 v 1.37762 q -0.11725,-0.0489 -0.2638,-0.0782 -0.13679,-0.0391 -0.28334,-0.0391 -0.2638,0 -0.47875,0.12701 -0.21494,0.12701 -0.41035,0.42013 v 3.88859 z"
         style="font-style:normal;font-variant:normal;font-weight:500;font-stretch:normal;font-size:56.3021px;line-height:1.25;font-family:Oswald;-inkscape-font-specification:'Oswald Medium';text-align:center;text-anchor:middle;fill:#ffffff;stroke-width:0.244258"
         id="path3966" />
      <path
         d="m 104.73218,130.18418 q -0.61553,0 -1.01611,-0.22471 -0.40059,-0.23449 -0.60577,-0.67416 -0.1954,-0.43967 -0.1954,-1.06496 v -1.89545 q 0,-0.62529 0.1954,-1.06496 0.20518,-0.43967 0.60577,-0.66439 0.40058,-0.23448 1.01611,-0.23448 0.61553,0 1.01612,0.23448 0.41035,0.22472 0.60576,0.66439 0.20518,0.43967 0.20518,1.06496 v 1.89545 q 0,0.62529 -0.20518,1.06496 -0.19541,0.43967 -0.60576,0.67416 -0.40059,0.22471 -1.01612,0.22471 z m 0.01,-0.91841 q 0.22472,0 0.33219,-0.12701 0.10748,-0.12701 0.13679,-0.34197 0.0293,-0.2247 0.0293,-0.48851 v -2.07131 q 0,-0.2638 -0.0293,-0.47874 -0.0293,-0.21496 -0.13679,-0.34197 -0.10747,-0.13678 -0.33219,-0.13678 -0.22472,0 -0.33219,0.13678 -0.10748,0.12701 -0.14656,0.34197 -0.0293,0.21494 -0.0293,0.47874 v 2.07131 q 0,0.26381 0.0293,0.48851 0.0391,0.21496 0.14656,0.34197 0.10747,0.12701 0.33219,0.12701 z"
         style="font-style:normal;font-variant:normal;font-weight:500;font-stretch:normal;font-size:56.3021px;line-height:1.25;font-family:Oswald;-inkscape-font-specification:'Oswald Medium';text-align:center;text-anchor:middle;fill:#ffffff;stroke-width:0.244258"
         id="path3968" />
      <path
         d="m 107.52726,131.69858 q -0.17586,0 -0.3615,-0.0293 -0.18564,-0.0293 -0.34196,-0.0782 v -0.94772 q 0.0586,0.01 0.13678,0.0195 0.0879,0.01 0.14656,0.01 0.17586,0 0.28334,-0.0684 0.10747,-0.0684 0.15632,-0.1954 0.0586,-0.12703 0.0586,-0.31266 v -5.64726 h 1.32876 v 5.80358 q 0,0.6644 -0.37127,1.05521 -0.3615,0.3908 -1.03566,0.3908 z m 0.0782,-8.14846 v -1.10404 h 1.33853 v 1.10404 z"
         style="font-style:normal;font-variant:normal;font-weight:500;font-stretch:normal;font-size:56.3021px;line-height:1.25;font-family:Oswald;-inkscape-font-specification:'Oswald Medium';text-align:center;text-anchor:middle;fill:#ffffff;stroke-width:0.244258"
         id="path3970" />
      <path
         d="m 111.6592,130.18418 q -0.63507,0 -1.03565,-0.23448 -0.40059,-0.24426 -0.59599,-0.70347 -0.18564,-0.46898 -0.18564,-1.12358 v -1.70005 q 0,-0.67414 0.18564,-1.13335 0.1954,-0.45921 0.59599,-0.6937 0.41035,-0.23448 1.03565,-0.23448 0.67416,0 1.04543,0.25402 0.38104,0.25403 0.53737,0.74255 0.1661,0.47875 0.1661,1.17243 v 0.80118 h -2.24719 v 1.11381 q 0,0.27358 0.0489,0.44943 0.0586,0.17588 0.17586,0.25404 0.11725,0.0782 0.28334,0.0782 0.17587,0 0.28334,-0.0782 0.10748,-0.0879 0.15633,-0.24427 0.0489,-0.16609 0.0489,-0.41033 v -0.46898 h 1.24083 v 0.38103 q 0,0.85979 -0.42989,1.319 -0.4299,0.4592 -1.30923,0.4592 z m -0.49829,-3.50754 h 0.99658 v -0.53737 q 0,-0.29311 -0.0489,-0.46897 -0.0488,-0.18565 -0.15633,-0.26381 -0.10747,-0.0879 -0.30288,-0.0879 -0.17586,0 -0.28334,0.0879 -0.10747,0.0879 -0.15632,0.29312 -0.0489,0.20517 -0.0489,0.58621 z"
         style="font-style:normal;font-variant:normal;font-weight:500;font-stretch:normal;font-size:56.3021px;line-height:1.25;font-family:Oswald;-inkscape-font-specification:'Oswald Medium';text-align:center;text-anchor:middle;fill:#ffffff;stroke-width:0.244258"
         id="path3972" />
      <path
         d="m 115.9319,130.16464 q -0.53737,0 -0.85002,-0.17586 -0.30288,-0.17587 -0.4299,-0.50805 -0.12701,-0.3322 -0.12701,-0.7914 v -3.361 h -0.56668 V 124.449 h 0.56668 v -1.69028 h 1.33854 v 1.69028 h 0.85979 v 0.87933 h -0.85979 v 3.24376 q 0,0.29309 0.12701,0.42012 0.12701,0.11724 0.38104,0.11724 0.10748,0 0.20518,-0.01 0.10747,-0.01 0.20518,-0.0195 v 1.01612 q -0.1661,0.0195 -0.39082,0.0391 -0.21494,0.0293 -0.4592,0.0293 z"
         style="font-style:normal;font-variant:normal;font-weight:500;font-stretch:normal;font-size:56.3021px;line-height:1.25;font-family:Oswald;-inkscape-font-specification:'Oswald Medium';text-align:center;text-anchor:middle;fill:#ffffff;stroke-width:0.244258"
         id="path3974" />
      <path
         d="m 119.25412,130.18418 q -0.61553,0 -1.01612,-0.22471 -0.40058,-0.23449 -0.60576,-0.67416 -0.1954,-0.43967 -0.1954,-1.06496 v -1.89545 q 0,-0.62529 0.1954,-1.06496 0.20518,-0.43967 0.60576,-0.66439 0.40059,-0.23448 1.01612,-0.23448 0.61553,0 1.01612,0.23448 0.41035,0.22472 0.60576,0.66439 0.20518,0.43967 0.20518,1.06496 v 1.89545 q 0,0.62529 -0.20518,1.06496 -0.19541,0.43967 -0.60576,0.67416 -0.40059,0.22471 -1.01612,0.22471 z m 0.01,-0.91841 q 0.22472,0 0.33219,-0.12701 0.10747,-0.12701 0.13679,-0.34197 0.0293,-0.2247 0.0293,-0.48851 v -2.07131 q 0,-0.2638 -0.0293,-0.47874 -0.0293,-0.21496 -0.13679,-0.34197 -0.10747,-0.13678 -0.33219,-0.13678 -0.22472,0 -0.33219,0.13678 -0.10748,0.12701 -0.14656,0.34197 -0.0293,0.21494 -0.0293,0.47874 v 2.07131 q 0,0.26381 0.0293,0.48851 0.0391,0.21496 0.14656,0.34197 0.10747,0.12701 0.33219,0.12701 z"
         style="font-style:normal;font-variant:normal;font-weight:500;font-stretch:normal;font-size:56.3021px;line-height:1.25;font-family:Oswald;-inkscape-font-specification:'Oswald Medium';text-align:center;text-anchor:middle;fill:#ffffff;stroke-width:0.244258"
         id="path3976" />
      <path
         d="m 126.43792,130.20372 q -0.71323,0 -1.19198,-0.27356 -0.47875,-0.28334 -0.72301,-0.82071 -0.24426,-0.53736 -0.27357,-1.319 l 1.24084,-0.24425 q 0.0195,0.45921 0.10747,0.81093 0.0977,0.35174 0.28334,0.54713 0.19541,0.18565 0.50806,0.18565 0.35173,0 0.49829,-0.20519 0.14655,-0.21493 0.14655,-0.53736 0,-0.51783 -0.23449,-0.85002 -0.23448,-0.33218 -0.6253,-0.66438 l -0.99657,-0.87933 q -0.42013,-0.36151 -0.67416,-0.80118 -0.24426,-0.44943 -0.24426,-1.10404 0,-0.93795 0.54714,-1.44601 0.54714,-0.50806 1.49487,-0.50806 0.55691,0 0.92818,0.17586 0.37127,0.16611 0.58622,0.46898 0.22472,0.30289 0.33219,0.6937 0.10748,0.38105 0.13679,0.81093 l -1.23107,0.21496 q -0.0195,-0.37128 -0.0879,-0.6644 -0.0586,-0.2931 -0.22472,-0.45919 -0.15632,-0.1661 -0.46897,-0.1661 -0.32243,0 -0.49829,0.21495 -0.1661,0.20517 -0.1661,0.51783 0,0.40059 0.1661,0.66438 0.16609,0.25403 0.47875,0.52759 l 0.9868,0.86957 q 0.48852,0.41035 0.83048,0.96726 0.35173,0.54714 0.35173,1.32877 0,0.56667 -0.25403,1.00634 -0.24426,0.43967 -0.69369,0.6937 -0.43967,0.24425 -1.03566,0.24425 z"
         style="font-style:normal;font-variant:normal;font-weight:500;font-stretch:normal;font-size:56.3021px;line-height:1.25;font-family:Oswald;-inkscape-font-specification:'Oswald Medium';text-align:center;text-anchor:middle;fill:#ffffff;stroke-width:0.244258"
         id="path3978" />
      <path
         d="m 130.27904,130.18418 q -0.38104,0 -0.65461,-0.1954 -0.27357,-0.20518 -0.42012,-0.50805 -0.14656,-0.31266 -0.14656,-0.64486 0,-0.52759 0.19541,-0.8891 0.1954,-0.36149 0.51783,-0.60575 0.32242,-0.24425 0.73277,-0.42013 0.41036,-0.18563 0.83048,-0.33218 v -0.48853 q 0,-0.24425 -0.0391,-0.41034 -0.0293,-0.16611 -0.12701,-0.25404 -0.0879,-0.0879 -0.28334,-0.0879 -0.1661,0 -0.27357,0.0782 -0.0977,0.0782 -0.14656,0.22471 -0.0391,0.1368 -0.0488,0.32243 l -0.0195,0.34196 -1.26038,-0.0489 q 0.0293,-0.97703 0.47875,-1.43624 0.45921,-0.46897 1.38739,-0.46897 0.85002,0 1.23106,0.46897 0.39082,0.46898 0.39082,1.27014 v 2.60869 q 0,0.31265 0.01,0.56667 0.0195,0.25404 0.0391,0.45921 0.0293,0.20518 0.0489,0.3615 h -1.19198 q -0.0293,-0.1954 -0.0782,-0.43966 -0.0391,-0.25402 -0.0586,-0.37128 -0.0977,0.34197 -0.37127,0.62531 -0.27357,0.27356 -0.74255,0.27356 z m 0.48852,-0.9868 q 0.12702,0 0.23449,-0.0586 0.11724,-0.0684 0.20518,-0.15632 0.0879,-0.088 0.12701,-0.15634 v -1.57301 q -0.21495,0.12701 -0.41035,0.25402 -0.18564,0.12702 -0.3322,0.28334 -0.13678,0.14655 -0.21494,0.32243 -0.0684,0.17586 -0.0684,0.41036 0,0.31263 0.11725,0.49828 0.12701,0.17586 0.34196,0.17586 z"
         style="font-style:normal;font-variant:normal;font-weight:500;font-stretch:normal;font-size:56.3021px;line-height:1.25;font-family:Oswald;-inkscape-font-specification:'Oswald Medium';text-align:center;text-anchor:middle;fill:#ffffff;stroke-width:0.244258"
         id="path3980" />
      <path
         d="M 133.59287,130.09625 V 124.449 h 1.32877 v 0.56667 q 0.30288,-0.29311 0.63507,-0.46897 0.34196,-0.18563 0.73277,-0.18563 0.35174,0 0.55691,0.17586 0.20518,0.16609 0.30289,0.44943 0.0977,0.28335 0.0977,0.61553 v 4.49436 h -1.32877 v -4.23055 q 0,-0.25404 -0.0782,-0.39082 -0.0782,-0.13678 -0.30288,-0.13678 -0.13679,0 -0.30288,0.0782 -0.15633,0.0782 -0.31265,0.1954 v 4.48459 z"
         style="font-style:normal;font-variant:normal;font-weight:500;font-stretch:normal;font-size:56.3021px;line-height:1.25;font-family:Oswald;-inkscape-font-specification:'Oswald Medium';text-align:center;text-anchor:middle;fill:#ffffff;stroke-width:0.244258"
         id="path3982" />
      <path
         d="m 138.23974,130.09625 v -7.91398 h 1.32876 v 4.54322 l 1.45578,-2.27649 h 1.44602 l -1.4167,2.26672 1.38739,3.38053 h -1.39716 l -1.02589,-2.78454 -0.44944,0.62529 v 2.15925 z"
         style="font-style:normal;font-variant:normal;font-weight:500;font-stretch:normal;font-size:56.3021px;line-height:1.25;font-family:Oswald;-inkscape-font-specification:'Oswald Medium';text-align:center;text-anchor:middle;fill:#ffffff;stroke-width:0.244258"
         id="path3984" />
      <path
         d="m 144.65321,130.18418 q -0.61553,0 -1.01612,-0.22471 -0.40058,-0.23449 -0.60576,-0.67416 -0.19541,-0.43967 -0.19541,-1.06496 v -1.89545 q 0,-0.62529 0.19541,-1.06496 0.20518,-0.43967 0.60576,-0.66439 0.40059,-0.23448 1.01612,-0.23448 0.61553,0 1.01611,0.23448 0.41036,0.22472 0.60576,0.66439 0.20518,0.43967 0.20518,1.06496 v 1.89545 q 0,0.62529 -0.20518,1.06496 -0.1954,0.43967 -0.60576,0.67416 -0.40058,0.22471 -1.01611,0.22471 z m 0.01,-0.91841 q 0.22472,0 0.33219,-0.12701 0.10747,-0.12701 0.13678,-0.34197 0.0293,-0.2247 0.0293,-0.48851 v -2.07131 q 0,-0.2638 -0.0293,-0.47874 -0.0293,-0.21496 -0.13678,-0.34197 -0.10747,-0.13678 -0.33219,-0.13678 -0.22472,0 -0.33219,0.13678 -0.10748,0.12701 -0.14656,0.34197 -0.0293,0.21494 -0.0293,0.47874 v 2.07131 q 0,0.26381 0.0293,0.48851 0.0391,0.21496 0.14656,0.34197 0.10747,0.12701 0.33219,0.12701 z"
         style="font-style:normal;font-variant:normal;font-weight:500;font-stretch:normal;font-size:56.3021px;line-height:1.25;font-family:Oswald;-inkscape-font-specification:'Oswald Medium';text-align:center;text-anchor:middle;fill:#ffffff;stroke-width:0.244258"
         id="path3986" />
      <path
         d="m 147.66324,130.09625 v -4.71907 h -0.60576 V 124.449 h 0.60576 v -0.36151 q 0,-0.50806 0.0879,-0.87933 0.0977,-0.38105 0.39081,-0.58622 0.30289,-0.20517 0.90865,-0.20517 0.18563,0 0.35173,0.0195 0.1661,0.01 0.37127,0.0391 v 0.9868 q -0.0782,-0.0195 -0.18563,-0.0293 -0.0977,-0.0195 -0.18564,-0.0195 -0.23449,0 -0.32242,0.14655 -0.0879,0.14655 -0.0879,0.4299 v 0.45921 h 0.78162 v 0.92818 h -0.78162 v 4.71907 z"
         style="font-style:normal;font-variant:normal;font-weight:500;font-stretch:normal;font-size:56.3021px;line-height:1.25;font-family:Oswald;-inkscape-font-specification:'Oswald Medium';text-align:center;text-anchor:middle;fill:#ffffff;stroke-width:0.244258"
         id="path3988" />
      <path
         d="m 151.46085,130.18418 q -0.38104,0 -0.65461,-0.1954 -0.27357,-0.20518 -0.42013,-0.50805 -0.14655,-0.31266 -0.14655,-0.64486 0,-0.52759 0.1954,-0.8891 0.19541,-0.36149 0.51783,-0.60575 0.32242,-0.24425 0.73278,-0.42013 0.41035,-0.18563 0.83048,-0.33218 v -0.48853 q 0,-0.24425 -0.0391,-0.41034 -0.0293,-0.16611 -0.12701,-0.25404 -0.0879,-0.0879 -0.28334,-0.0879 -0.1661,0 -0.27357,0.0782 -0.0977,0.0782 -0.14655,0.22471 -0.0391,0.1368 -0.0489,0.32243 l -0.0195,0.34196 -1.26037,-0.0489 q 0.0293,-0.97703 0.47875,-1.43624 0.4592,-0.46897 1.38738,-0.46897 0.85002,0 1.23107,0.46897 0.39081,0.46898 0.39081,1.27014 v 2.60869 q 0,0.31265 0.01,0.56667 0.0195,0.25404 0.0391,0.45921 0.0293,0.20518 0.0488,0.3615 h -1.19198 q -0.0293,-0.1954 -0.0782,-0.43966 -0.0391,-0.25402 -0.0586,-0.37128 -0.0977,0.34197 -0.37128,0.62531 -0.27357,0.27356 -0.74254,0.27356 z m 0.48852,-0.9868 q 0.12701,0 0.23448,-0.0586 0.11725,-0.0684 0.20518,-0.15632 0.0879,-0.088 0.12702,-0.15634 v -1.57301 q -0.21495,0.12701 -0.41036,0.25402 -0.18564,0.12702 -0.33219,0.28334 -0.13679,0.14655 -0.21495,0.32243 -0.0684,0.17586 -0.0684,0.41036 0,0.31263 0.11724,0.49828 0.12702,0.17586 0.34197,0.17586 z"
         style="font-style:normal;font-variant:normal;font-weight:500;font-stretch:normal;font-size:56.3021px;line-height:1.25;font-family:Oswald;-inkscape-font-specification:'Oswald Medium';text-align:center;text-anchor:middle;fill:#ffffff;stroke-width:0.244258"
         id="path3990" />
    </g>
    <g
       id="g5231"
       transform="translate(-40.304311)"
       style="fill:#ffffff">
      <path
         d="m 90.743257,142.45568 q -0.791398,0 -1.240834,-0.30288 -0.439665,-0.31265 -0.625302,-0.85979 -0.175866,-0.55691 -0.175866,-1.27015 v -3.28283 q 0,-0.72301 0.185636,-1.25061 0.195407,-0.53736 0.635073,-0.83048 0.449435,-0.29312 1.221293,-0.29312 0.762087,0 1.201753,0.29312 0.449437,0.29312 0.635073,0.83048 0.185637,0.5276 0.185637,1.25061 v 3.2926 q 0,0.71324 -0.185637,1.26038 -0.175866,0.53737 -0.615533,0.85002 -0.439665,0.31265 -1.221293,0.31265 z m 0,-0.59599 q 0.517828,0 0.791398,-0.20518 0.27357,-0.21495 0.371273,-0.58622 0.107474,-0.38105 0.107474,-0.87933 v -3.58572 q 0,-0.49829 -0.107474,-0.86957 -0.0977,-0.37126 -0.371273,-0.56667 -0.27357,-0.20517 -0.791398,-0.20517 -0.527598,0 -0.810938,0.20517 -0.27357,0.19541 -0.381045,0.56667 -0.0977,0.37128 -0.0977,0.86957 v 3.58572 q 0,0.49828 0.0977,0.87933 0.107475,0.37127 0.381045,0.58622 0.28334,0.20518 0.810938,0.20518 z"
         style="font-style:normal;font-variant:normal;font-weight:300;font-stretch:normal;font-size:56.3021px;line-height:1.25;font-family:Oswald;-inkscape-font-specification:'Oswald Light';text-align:center;text-anchor:middle;fill:#ffffff;stroke-width:0.244258"
         id="path3992" />
      <path
         d="M 93.951747,142.35797 V 134.444 h 0.713237 v 7.91397 z"
         style="font-style:normal;font-variant:normal;font-weight:300;font-stretch:normal;font-size:56.3021px;line-height:1.25;font-family:Oswald;-inkscape-font-specification:'Oswald Light';text-align:center;text-anchor:middle;fill:#ffffff;stroke-width:0.244258"
         id="path3994" />
      <path
         d="M 95.829335,142.35797 V 134.444 h 0.713234 v 2.86271 q 0.28334,-0.30289 0.625302,-0.48852 0.341963,-0.19541 0.752316,-0.19541 0.283342,0 0.468978,0.14656 0.195407,0.13678 0.29311,0.41034 0.107474,0.26381 0.107474,0.64486 v 4.53343 h -0.723005 v -4.37711 q 0,-0.43967 -0.136785,-0.61553 -0.127015,-0.18565 -0.400585,-0.18565 -0.244258,0 -0.508058,0.15634 -0.254028,0.14655 -0.478747,0.38105 v 4.6409 z"
         style="font-style:normal;font-variant:normal;font-weight:300;font-stretch:normal;font-size:56.3021px;line-height:1.25;font-family:Oswald;-inkscape-font-specification:'Oswald Light';text-align:center;text-anchor:middle;fill:#ffffff;stroke-width:0.244258"
         id="path3996" />
      <path
         d="m 100.82305,142.44591 q -0.34196,0 -0.59599,-0.1661 -0.254031,-0.17586 -0.400586,-0.4592 -0.136785,-0.29312 -0.136785,-0.63508 0,-0.42989 0.117245,-0.73277 0.127013,-0.30288 0.390816,-0.53737 0.27357,-0.24426 0.70346,-0.46898 0.43967,-0.23449 1.06497,-0.51783 V 138.528 q 0,-0.51783 -0.0684,-0.81093 -0.0586,-0.30289 -0.21495,-0.4299 -0.14656,-0.12703 -0.42012,-0.12703 -0.22472,0 -0.40059,0.0879 -0.17586,0.0879 -0.28334,0.30287 -0.10747,0.20519 -0.10747,0.57645 v 0.19541 l -0.703468,-0.01 q 0.0098,-0.85979 0.361508,-1.27015 0.3615,-0.42012 1.17244,-0.42012 0.76208,0 1.06496,0.4592 0.31265,0.44944 0.31265,1.40694 v 2.74546 q 0,0.14656 0.01,0.38105 0.01,0.22472 0.0195,0.42989 0.01,0.20518 0.0195,0.31265 h -0.63507 q -0.0195,-0.18563 -0.0586,-0.41035 -0.0391,-0.23449 -0.0489,-0.37127 -0.11725,0.34196 -0.42013,0.60576 -0.29311,0.2638 -0.74254,0.2638 z m 0.22472,-0.60576 q 0.21495,0 0.39081,-0.10748 0.17587,-0.10747 0.31265,-0.25403 0.13679,-0.15632 0.21495,-0.31265 v -1.75866 q -0.42013,0.21495 -0.72301,0.39081 -0.29311,0.17587 -0.47874,0.34197 -0.18564,0.16609 -0.27357,0.38104 -0.0879,0.20518 -0.0879,0.48852 0,0.44943 0.19541,0.64484 0.19541,0.18564 0.44944,0.18564 z"
         style="font-style:normal;font-variant:normal;font-weight:300;font-stretch:normal;font-size:56.3021px;line-height:1.25;font-family:Oswald;-inkscape-font-specification:'Oswald Light';text-align:center;text-anchor:middle;fill:#ffffff;stroke-width:0.244258"
         id="path3998" />
      <path
         d="m 103.76866,142.35797 v -5.64726 h 0.723 v 0.77186 q 0.27357,-0.44944 0.6253,-0.63507 0.35174,-0.19541 0.67416,-0.19541 0.0293,0 0.0586,0 0.0293,0 0.0684,0.01 v 0.7621 q -0.0684,-0.0293 -0.16609,-0.0391 -0.0977,-0.0195 -0.18564,-0.0195 -0.33219,0 -0.60576,0.15632 -0.2638,0.15633 -0.46898,0.49829 v 4.33803 z"
         style="font-style:normal;font-variant:normal;font-weight:300;font-stretch:normal;font-size:56.3021px;line-height:1.25;font-family:Oswald;-inkscape-font-specification:'Oswald Light';text-align:center;text-anchor:middle;fill:#ffffff;stroke-width:0.244258"
         id="path4000" />
      <path
         d="m 108.60498,144.21434 v -7.50363 h 0.71323 v 0.46897 q 0.17587,-0.21494 0.43967,-0.38103 0.2638,-0.17587 0.64484,-0.17587 0.41036,0 0.65462,0.19541 0.25402,0.18563 0.39081,0.50806 0.13678,0.32241 0.18564,0.723 0.0489,0.40059 0.0489,0.82071 v 1.19198 q 0,0.72301 -0.11725,1.26038 -0.11724,0.5276 -0.42012,0.83048 -0.29311,0.29311 -0.82071,0.29311 -0.34196,0 -0.59599,-0.17587 -0.24426,-0.17587 -0.41036,-0.3615 v 2.3058 z m 1.6121,-2.33511 q 0.32243,0 0.47875,-0.20518 0.1661,-0.20518 0.21495,-0.60576 0.0586,-0.41035 0.0586,-0.98681 v -1.21152 q 0,-0.54714 -0.0586,-0.91841 -0.0489,-0.38105 -0.21495,-0.57645 -0.16609,-0.19542 -0.49829,-0.19542 -0.27357,0 -0.50805,0.14657 -0.22472,0.14655 -0.37128,0.2931 v 3.84952 q 0.15633,0.1661 0.38105,0.29311 0.23448,0.11725 0.51782,0.11725 z"
         style="font-style:normal;font-variant:normal;font-weight:300;font-stretch:normal;font-size:56.3021px;line-height:1.25;font-family:Oswald;-inkscape-font-specification:'Oswald Light';text-align:center;text-anchor:middle;fill:#ffffff;stroke-width:0.244258"
         id="path4002" />
      <path
         d="m 113.66571,142.44591 q -0.34196,0 -0.59599,-0.1661 -0.25403,-0.17586 -0.40058,-0.4592 -0.13679,-0.29312 -0.13679,-0.63508 0,-0.42989 0.11725,-0.73277 0.12701,-0.30288 0.39081,-0.53737 0.27357,-0.24426 0.70346,-0.46898 0.43967,-0.23449 1.06497,-0.51783 V 138.528 q 0,-0.51783 -0.0684,-0.81093 -0.0586,-0.30289 -0.21495,-0.4299 -0.14655,-0.12703 -0.42012,-0.12703 -0.22472,0 -0.40059,0.0879 -0.17586,0.0879 -0.28334,0.30287 -0.10747,0.20519 -0.10747,0.57645 v 0.19541 l -0.70347,-0.01 q 0.01,-0.85979 0.36151,-1.27015 0.3615,-0.42012 1.17244,-0.42012 0.76209,0 1.06497,0.4592 0.31265,0.44944 0.31265,1.40694 v 2.74546 q 0,0.14656 0.01,0.38105 0.01,0.22472 0.0195,0.42989 0.01,0.20518 0.0195,0.31265 H 114.936 q -0.0196,-0.18563 -0.0586,-0.41035 -0.0391,-0.23449 -0.0489,-0.37127 -0.11724,0.34196 -0.42012,0.60576 -0.29311,0.2638 -0.74255,0.2638 z m 0.22472,-0.60576 q 0.21495,0 0.39081,-0.10748 0.17587,-0.10747 0.31265,-0.25403 0.13679,-0.15632 0.21495,-0.31265 v -1.75866 q -0.42012,0.21495 -0.723,0.39081 -0.29311,0.17587 -0.47875,0.34197 -0.18564,0.16609 -0.27357,0.38104 -0.0879,0.20518 -0.0879,0.48852 0,0.44943 0.1954,0.64484 0.19541,0.18564 0.44944,0.18564 z"
         style="font-style:normal;font-variant:normal;font-weight:300;font-stretch:normal;font-size:56.3021px;line-height:1.25;font-family:Oswald;-inkscape-font-specification:'Oswald Light';text-align:center;text-anchor:middle;fill:#ffffff;stroke-width:0.244258"
         id="path4004" />
      <path
         d="m 116.61132,142.35797 v -5.64726 h 0.72301 v 0.77186 q 0.27357,-0.44944 0.6253,-0.63507 0.35173,-0.19541 0.67415,-0.19541 0.0293,0 0.0586,0 0.0293,0 0.0684,0.01 v 0.7621 q -0.0684,-0.0293 -0.16609,-0.0391 -0.0977,-0.0195 -0.18564,-0.0195 -0.33219,0 -0.60576,0.15632 -0.2638,0.15633 -0.46897,0.49829 v 4.33803 z"
         style="font-style:normal;font-variant:normal;font-weight:300;font-stretch:normal;font-size:56.3021px;line-height:1.25;font-family:Oswald;-inkscape-font-specification:'Oswald Light';text-align:center;text-anchor:middle;fill:#ffffff;stroke-width:0.244258"
         id="path4006" />
      <path
         d="m 120.42099,142.44591 q -0.34196,0 -0.59599,-0.1661 -0.25403,-0.17586 -0.40058,-0.4592 -0.13679,-0.29312 -0.13679,-0.63508 0,-0.42989 0.11724,-0.73277 0.12702,-0.30288 0.39082,-0.53737 0.27357,-0.24426 0.70346,-0.46898 0.43967,-0.23449 1.06497,-0.51783 V 138.528 q 0,-0.51783 -0.0684,-0.81093 -0.0586,-0.30289 -0.21495,-0.4299 -0.14655,-0.12703 -0.42012,-0.12703 -0.22472,0 -0.40059,0.0879 -0.17586,0.0879 -0.28334,0.30287 -0.10747,0.20519 -0.10747,0.57645 v 0.19541 l -0.70347,-0.01 q 0.01,-0.85979 0.36151,-1.27015 0.3615,-0.42012 1.17244,-0.42012 0.76209,0 1.06497,0.4592 0.31265,0.44944 0.31265,1.40694 v 2.74546 q 0,0.14656 0.01,0.38105 0.01,0.22472 0.0195,0.42989 0.01,0.20518 0.0195,0.31265 h -0.63507 q -0.0195,-0.18563 -0.0586,-0.41035 -0.0391,-0.23449 -0.0489,-0.37127 -0.11724,0.34196 -0.42012,0.60576 -0.29311,0.2638 -0.74255,0.2638 z m 0.22472,-0.60576 q 0.21495,0 0.39081,-0.10748 0.17587,-0.10747 0.31265,-0.25403 0.13679,-0.15632 0.21495,-0.31265 v -1.75866 q -0.42012,0.21495 -0.723,0.39081 -0.29311,0.17587 -0.47875,0.34197 -0.18564,0.16609 -0.27357,0.38104 -0.0879,0.20518 -0.0879,0.48852 0,0.44943 0.1954,0.64484 0.19541,0.18564 0.44944,0.18564 z"
         style="font-style:normal;font-variant:normal;font-weight:300;font-stretch:normal;font-size:56.3021px;line-height:1.25;font-family:Oswald;-inkscape-font-specification:'Oswald Light';text-align:center;text-anchor:middle;fill:#ffffff;stroke-width:0.244258"
         id="path4008" />
      <path
         d="m 126.69951,142.44591 q -0.57645,0 -0.90865,-0.24426 -0.32242,-0.25403 -0.4592,-0.72301 -0.13679,-0.47874 -0.13679,-1.16267 v -1.56325 q 0,-0.68393 0.13679,-1.15291 0.13678,-0.47875 0.4592,-0.723 0.3322,-0.25403 0.90865,-0.25403 0.59599,0 0.91841,0.25403 0.32242,0.24425 0.45921,0.723 0.13678,0.46898 0.13678,1.15291 v 1.56325 q 0,0.68393 -0.13678,1.16267 -0.13679,0.46898 -0.45921,0.72301 -0.32242,0.24426 -0.91841,0.24426 z m 0,-0.53737 q 0.37127,0 0.53737,-0.19541 0.17586,-0.19541 0.21494,-0.54714 0.0391,-0.3615 0.0391,-0.81094 v -1.64141 q 0,-0.45921 -0.0391,-0.80117 -0.0391,-0.35174 -0.21494,-0.54714 -0.1661,-0.20519 -0.53737,-0.20519 -0.37128,0 -0.53737,0.20519 -0.1661,0.1954 -0.20518,0.54714 -0.0391,0.34196 -0.0391,0.80117 v 1.64141 q 0,0.44944 0.0391,0.81094 0.0391,0.35173 0.20518,0.54714 0.16609,0.19541 0.53737,0.19541 z"
         style="font-style:normal;font-variant:normal;font-weight:300;font-stretch:normal;font-size:56.3021px;line-height:1.25;font-family:Oswald;-inkscape-font-specification:'Oswald Light';text-align:center;text-anchor:middle;fill:#ffffff;stroke-width:0.244258"
         id="path4010" />
      <path
         d="M 131.32638,142.35797 V 134.444 h 1.89544 q 0.71324,0 1.12359,0.26379 0.41036,0.26381 0.57645,0.73278 0.17587,0.46898 0.17587,1.10405 0,0.5569 -0.18564,1.03565 -0.17586,0.46898 -0.59599,0.75232 -0.41035,0.28334 -1.08451,0.28334 h -1.16267 v 3.74204 z m 0.74254,-4.29895 h 0.94773 q 0.47874,0 0.77185,-0.13678 0.30288,-0.14655 0.43967,-0.47875 0.13678,-0.3322 0.13678,-0.89887 0,-0.60576 -0.11724,-0.93796 -0.11724,-0.34196 -0.41035,-0.46897 -0.28334,-0.13678 -0.81094,-0.13678 h -0.9575 z"
         style="font-style:normal;font-variant:normal;font-weight:300;font-stretch:normal;font-size:56.3021px;line-height:1.25;font-family:Oswald;-inkscape-font-specification:'Oswald Light';text-align:center;text-anchor:middle;fill:#ffffff;stroke-width:0.244258"
         id="path4012" />
      <path
         d="m 136.81304,142.44591 q -0.34196,0 -0.59599,-0.1661 -0.25403,-0.17586 -0.40059,-0.4592 -0.13678,-0.29312 -0.13678,-0.63508 0,-0.42989 0.11724,-0.73277 0.12702,-0.30288 0.39082,-0.53737 0.27357,-0.24426 0.70346,-0.46898 0.43967,-0.23449 1.06497,-0.51783 V 138.528 q 0,-0.51783 -0.0684,-0.81093 -0.0586,-0.30289 -0.21495,-0.4299 -0.14656,-0.12703 -0.42013,-0.12703 -0.22471,0 -0.40058,0.0879 -0.17587,0.0879 -0.28334,0.30287 -0.10747,0.20519 -0.10747,0.57645 v 0.19541 l -0.70347,-0.01 q 0.01,-0.85979 0.3615,-1.27015 0.36151,-0.42012 1.17245,-0.42012 0.76208,0 1.06496,0.4592 0.31265,0.44944 0.31265,1.40694 v 2.74546 q 0,0.14656 0.01,0.38105 0.01,0.22472 0.0196,0.42989 0.01,0.20518 0.0195,0.31265 h -0.63508 q -0.0195,-0.18563 -0.0586,-0.41035 -0.0391,-0.23449 -0.0489,-0.37127 -0.11724,0.34196 -0.42013,0.60576 -0.29311,0.2638 -0.74254,0.2638 z m 0.22472,-0.60576 q 0.21494,0 0.39081,-0.10748 0.17587,-0.10747 0.31265,-0.25403 0.13679,-0.15632 0.21495,-0.31265 v -1.75866 q -0.42013,0.21495 -0.72301,0.39081 -0.29311,0.17587 -0.47874,0.34197 -0.18564,0.16609 -0.27357,0.38104 -0.0879,0.20518 -0.0879,0.48852 0,0.44943 0.19541,0.64484 0.19541,0.18564 0.44944,0.18564 z"
         style="font-style:normal;font-variant:normal;font-weight:300;font-stretch:normal;font-size:56.3021px;line-height:1.25;font-family:Oswald;-inkscape-font-specification:'Oswald Light';text-align:center;text-anchor:middle;fill:#ffffff;stroke-width:0.244258"
         id="path4014" />
      <path
         d="m 140.99948,142.44591 q -0.67415,0 -1.07474,-0.4299 -0.40058,-0.43966 -0.4592,-1.17244 l 0.59599,-0.18563 q 0.0586,0.65461 0.30288,0.95749 0.24426,0.29311 0.68392,0.29311 0.37128,0 0.56668,-0.20518 0.20518,-0.21495 0.20518,-0.59599 0,-0.27357 -0.1661,-0.54714 -0.16609,-0.28334 -0.51782,-0.58622 l -0.77186,-0.66438 q -0.38105,-0.32242 -0.57645,-0.64485 -0.19541,-0.32242 -0.19541,-0.77185 0,-0.41036 0.1661,-0.68392 0.17586,-0.28335 0.47874,-0.4299 0.30288,-0.15633 0.70347,-0.15633 0.64484,0 0.97703,0.42012 0.33219,0.41036 0.36151,1.06497 l -0.50806,0.1661 q -0.0195,-0.38104 -0.11725,-0.62531 -0.0977,-0.25402 -0.27357,-0.37126 -0.16609,-0.11726 -0.41035,-0.11726 -0.32242,0 -0.5276,0.18565 -0.19541,0.17586 -0.19541,0.49829 0,0.25402 0.0977,0.44943 0.0977,0.19541 0.3615,0.43967 l 0.80117,0.71323 q 0.23449,0.20518 0.44943,0.43967 0.21495,0.23449 0.35174,0.5276 0.13678,0.28333 0.13678,0.67415 0,0.43966 -0.18563,0.74255 -0.17587,0.29311 -0.49829,0.4592 -0.32242,0.15633 -0.76209,0.15633 z"
         style="font-style:normal;font-variant:normal;font-weight:300;font-stretch:normal;font-size:56.3021px;line-height:1.25;font-family:Oswald;-inkscape-font-specification:'Oswald Light';text-align:center;text-anchor:middle;fill:#ffffff;stroke-width:0.244258"
         id="path4016" />
      <path
         d="m 144.54886,142.44591 q -0.67415,0 -1.07474,-0.4299 -0.40058,-0.43966 -0.4592,-1.17244 l 0.59599,-0.18563 q 0.0586,0.65461 0.30288,0.95749 0.24426,0.29311 0.68392,0.29311 0.37128,0 0.56668,-0.20518 0.20518,-0.21495 0.20518,-0.59599 0,-0.27357 -0.16609,-0.54714 -0.1661,-0.28334 -0.51783,-0.58622 l -0.77186,-0.66438 q -0.38104,-0.32242 -0.57645,-0.64485 -0.19541,-0.32242 -0.19541,-0.77185 0,-0.41036 0.1661,-0.68392 0.17587,-0.28335 0.47875,-0.4299 0.30288,-0.15633 0.70346,-0.15633 0.64484,0 0.97704,0.42012 0.33219,0.41036 0.3615,1.06497 l -0.50806,0.1661 q -0.0195,-0.38104 -0.11724,-0.62531 -0.0977,-0.25402 -0.27357,-0.37126 -0.1661,-0.11726 -0.41036,-0.11726 -0.32242,0 -0.5276,0.18565 -0.1954,0.17586 -0.1954,0.49829 0,0.25402 0.0977,0.44943 0.0977,0.19541 0.3615,0.43967 l 0.80117,0.71323 q 0.23449,0.20518 0.44944,0.43967 0.21494,0.23449 0.35173,0.5276 0.13678,0.28333 0.13678,0.67415 0,0.43966 -0.18563,0.74255 -0.17587,0.29311 -0.49829,0.4592 -0.32242,0.15633 -0.76209,0.15633 z"
         style="font-style:normal;font-variant:normal;font-weight:300;font-stretch:normal;font-size:56.3021px;line-height:1.25;font-family:Oswald;-inkscape-font-specification:'Oswald Light';text-align:center;text-anchor:middle;fill:#ffffff;stroke-width:0.244258"
         id="path4018" />
      <path
         d="m 147.78559,142.44591 q -0.34196,0 -0.59599,-0.1661 -0.25403,-0.17586 -0.40058,-0.4592 -0.13679,-0.29312 -0.13679,-0.63508 0,-0.42989 0.11725,-0.73277 0.12701,-0.30288 0.39081,-0.53737 0.27357,-0.24426 0.70347,-0.46898 0.43966,-0.23449 1.06497,-0.51783 V 138.528 q 0,-0.51783 -0.0684,-0.81093 -0.0586,-0.30289 -0.21494,-0.4299 -0.14656,-0.12703 -0.42013,-0.12703 -0.22472,0 -0.40058,0.0879 -0.17587,0.0879 -0.28334,0.30287 -0.10748,0.20519 -0.10748,0.57645 v 0.19541 l -0.70346,-0.01 q 0.01,-0.85979 0.3615,-1.27015 0.3615,-0.42012 1.17244,-0.42012 0.76209,0 1.06497,0.4592 0.31265,0.44944 0.31265,1.40694 v 2.74546 q 0,0.14656 0.01,0.38105 0.01,0.22472 0.0195,0.42989 0.01,0.20518 0.0195,0.31265 h -0.63507 q -0.0195,-0.18563 -0.0586,-0.41035 -0.0391,-0.23449 -0.0488,-0.37127 -0.11725,0.34196 -0.42013,0.60576 -0.29311,0.2638 -0.74255,0.2638 z m 0.22472,-0.60576 q 0.21495,0 0.39082,-0.10748 0.17586,-0.10747 0.31265,-0.25403 0.13678,-0.15632 0.21495,-0.31265 v -1.75866 q -0.42013,0.21495 -0.72301,0.39081 -0.29311,0.17587 -0.47875,0.34197 -0.18563,0.16609 -0.27357,0.38104 -0.0879,0.20518 -0.0879,0.48852 0,0.44943 0.19541,0.64484 0.1954,0.18564 0.44943,0.18564 z"
         style="font-style:normal;font-variant:normal;font-weight:300;font-stretch:normal;font-size:56.3021px;line-height:1.25;font-family:Oswald;-inkscape-font-specification:'Oswald Light';text-align:center;text-anchor:middle;fill:#ffffff;stroke-width:0.244258"
         id="path4020" />
      <path
         d="m 151.93295,142.44591 q -0.723,0 -1.04542,-0.54714 -0.31265,-0.54714 -0.31265,-1.81729 v -1.04542 q 0,-0.74255 0.10747,-1.27991 0.10747,-0.53737 0.39081,-0.83049 0.29311,-0.30288 0.83048,-0.30288 0.3322,0 0.57645,0.15633 0.25403,0.14655 0.42013,0.33218 V 134.444 h 0.71323 v 7.91397 h -0.71323 v -0.40058 q -0.1661,0.18564 -0.41036,0.34196 -0.23448,0.14656 -0.55691,0.14656 z m 0.14656,-0.56668 q 0.23449,0 0.43967,-0.10748 0.21494,-0.10747 0.38104,-0.2638 v -3.92768 q -0.14656,-0.13678 -0.3615,-0.26379 -0.21495,-0.1368 -0.47875,-0.1368 -0.46898,0 -0.6253,0.42013 -0.14656,0.41036 -0.14656,1.20176 v 1.33854 q 0,0.56668 0.0586,0.95749 0.0684,0.39081 0.23449,0.58622 0.17587,0.19541 0.49829,0.19541 z"
         style="font-style:normal;font-variant:normal;font-weight:300;font-stretch:normal;font-size:56.3021px;line-height:1.25;font-family:Oswald;-inkscape-font-specification:'Oswald Light';text-align:center;text-anchor:middle;fill:#ffffff;stroke-width:0.244258"
         id="path4022" />
      <path
         d="m 156.10596,142.44591 q -0.57645,0 -0.90864,-0.24426 -0.32243,-0.25403 -0.45921,-0.72301 -0.13679,-0.47874 -0.13679,-1.16267 v -1.56325 q 0,-0.68393 0.13679,-1.15291 0.13678,-0.47875 0.45921,-0.723 0.33219,-0.25403 0.90864,-0.25403 0.59599,0 0.91841,0.25403 0.32242,0.24425 0.45921,0.723 0.13678,0.46898 0.13678,1.15291 v 1.56325 q 0,0.68393 -0.13678,1.16267 -0.13679,0.46898 -0.45921,0.72301 -0.32242,0.24426 -0.91841,0.24426 z m 0,-0.53737 q 0.37127,0 0.53737,-0.19541 0.17586,-0.19541 0.21495,-0.54714 0.0391,-0.3615 0.0391,-0.81094 v -1.64141 q 0,-0.45921 -0.0391,-0.80117 -0.0391,-0.35174 -0.21495,-0.54714 -0.1661,-0.20519 -0.53737,-0.20519 -0.37127,0 -0.53737,0.20519 -0.1661,0.1954 -0.20518,0.54714 -0.0391,0.34196 -0.0391,0.80117 v 1.64141 q 0,0.44944 0.0391,0.81094 0.0391,0.35173 0.20518,0.54714 0.1661,0.19541 0.53737,0.19541 z"
         style="font-style:normal;font-variant:normal;font-weight:300;font-stretch:normal;font-size:56.3021px;line-height:1.25;font-family:Oswald;-inkscape-font-specification:'Oswald Light';text-align:center;text-anchor:middle;fill:#ffffff;stroke-width:0.244258"
         id="path4024" />
    </g>
    <g
       id="g5212"
       transform="translate(-37.537776)"
       style="fill:#ffffff">
      <path
         d="m 85.93472,156.47606 v -7.50363 h 0.713235 v 0.46898 q 0.175866,-0.21495 0.439666,-0.38104 0.263799,-0.17587 0.644844,-0.17587 0.410353,0 0.654613,0.19541 0.254028,0.18563 0.390813,0.50806 0.136785,0.32242 0.185636,0.723 0.04885,0.40059 0.04885,0.82071 v 1.19198 q 0,0.72301 -0.117243,1.26038 -0.117245,0.5276 -0.420125,0.83048 -0.293112,0.29311 -0.82071,0.29311 -0.341961,0 -0.595991,-0.17587 -0.244259,-0.17587 -0.410355,-0.3615 v 2.3058 z m 1.612108,-2.33511 q 0.322421,0 0.478746,-0.20518 0.166095,-0.20518 0.214949,-0.60576 0.05862,-0.41036 0.05862,-0.98681 v -1.21152 q 0,-0.54714 -0.05862,-0.91841 -0.04885,-0.38105 -0.214949,-0.57645 -0.166096,-0.19541 -0.498288,-0.19541 -0.27357,0 -0.508058,0.14656 -0.224718,0.14655 -0.371273,0.29311 v 3.84951 q 0.156327,0.1661 0.381043,0.29311 0.23449,0.11725 0.51783,0.11725 z"
         style="font-style:normal;font-variant:normal;font-weight:300;font-stretch:normal;font-size:56.3021px;line-height:1.25;font-family:Oswald;-inkscape-font-specification:'Oswald Light';text-align:center;text-anchor:middle;fill:#ffffff;stroke-width:0.244258"
         id="path4026" />
      <path
         d="m 90.995455,154.70763 q -0.341964,0 -0.595992,-0.1661 -0.254028,-0.17587 -0.400585,-0.45921 -0.136785,-0.29311 -0.136785,-0.63507 0,-0.42989 0.117245,-0.73277 0.127015,-0.30288 0.390813,-0.53737 0.27357,-0.24426 0.703465,-0.46898 0.439667,-0.23449 1.064968,-0.51783 v -0.40058 q 0,-0.51783 -0.06839,-0.81094 -0.05862,-0.30288 -0.214949,-0.4299 -0.146555,-0.12701 -0.420125,-0.12701 -0.224718,0 -0.400583,0.0879 -0.175866,0.0879 -0.28334,0.30288 -0.107475,0.20518 -0.107475,0.57645 v 0.19541 l -0.703464,-0.01 q 0.0098,-0.85979 0.361503,-1.27014 0.361503,-0.42013 1.172441,-0.42013 0.762086,0 1.064968,0.45921 0.312652,0.44943 0.312652,1.40693 v 2.74546 q 0,0.14656 0.0098,0.38105 0.0098,0.22472 0.01954,0.42989 0.0098,0.20518 0.01954,0.31265 h -0.635073 q -0.01954,-0.18563 -0.05862,-0.41035 -0.03908,-0.23449 -0.04885,-0.37127 -0.117245,0.34196 -0.420125,0.60576 -0.293112,0.2638 -0.742546,0.2638 z m 0.224718,-0.60576 q 0.214946,0 0.390813,-0.10748 0.175867,-0.10747 0.312652,-0.25403 0.136785,-0.15632 0.214946,-0.31265 v -1.75866 q -0.420125,0.21495 -0.723005,0.39081 -0.293109,0.17587 -0.478746,0.34197 -0.185637,0.16609 -0.27357,0.38104 -0.08793,0.20518 -0.08793,0.48852 0,0.44943 0.195406,0.64484 0.195407,0.18564 0.449437,0.18564 z"
         style="font-style:normal;font-variant:normal;font-weight:300;font-stretch:normal;font-size:56.3021px;line-height:1.25;font-family:Oswald;-inkscape-font-specification:'Oswald Light';text-align:center;text-anchor:middle;fill:#ffffff;stroke-width:0.244258"
         id="path4028" />
      <path
         d="m 93.941061,154.61969 v -5.64726 h 0.723006 v 0.77186 q 0.27357,-0.44944 0.625302,-0.63507 0.351733,-0.19541 0.674155,-0.19541 0.02931,0 0.05862,0 0.02931,0 0.06839,0.01 v 0.76209 q -0.06839,-0.0293 -0.166097,-0.0391 -0.0977,-0.0195 -0.185637,-0.0195 -0.332191,0 -0.605761,0.15632 -0.2638,0.15633 -0.468977,0.49829 v 4.33803 z"
         style="font-style:normal;font-variant:normal;font-weight:300;font-stretch:normal;font-size:56.3021px;line-height:1.25;font-family:Oswald;-inkscape-font-specification:'Oswald Light';text-align:center;text-anchor:middle;fill:#ffffff;stroke-width:0.244258"
         id="path4030" />
      <path
         d="m 97.750733,154.70763 q -0.341962,0 -0.59599,-0.1661 -0.25403,-0.17587 -0.400585,-0.45921 -0.136785,-0.29311 -0.136785,-0.63507 0,-0.42989 0.117243,-0.73277 0.127015,-0.30288 0.390815,-0.53737 0.27357,-0.24426 0.703465,-0.46898 0.439665,-0.23449 1.064968,-0.51783 v -0.40058 q 0,-0.51783 -0.06839,-0.81094 -0.05862,-0.30288 -0.214947,-0.4299 -0.146555,-0.12701 -0.420125,-0.12701 -0.224718,0 -0.400585,0.0879 -0.175866,0.0879 -0.28334,0.30288 -0.107473,0.20518 -0.107473,0.57645 v 0.19541 l -0.703465,-0.01 q 0.0098,-0.85979 0.361502,-1.27014 0.361503,-0.42013 1.172443,-0.42013 0.762086,0 1.064968,0.45921 0.31265,0.44943 0.31265,1.40693 v 2.74546 q 0,0.14656 0.0098,0.38105 0.0098,0.22472 0.01954,0.42989 0.0098,0.20518 0.01954,0.31265 h -0.635071 q -0.01954,-0.18563 -0.05862,-0.41035 -0.03908,-0.23449 -0.04885,-0.37127 -0.117243,0.34196 -0.420125,0.60576 -0.29311,0.2638 -0.742546,0.2638 z m 0.224718,-0.60576 q 0.214948,0 0.390815,-0.10748 0.175865,-0.10747 0.31265,-0.25403 0.136785,-0.15632 0.214948,-0.31265 v -1.75866 q -0.420125,0.21495 -0.723006,0.39081 -0.29311,0.17587 -0.478747,0.34197 -0.185637,0.16609 -0.27357,0.38104 -0.08793,0.20518 -0.08793,0.48852 0,0.44943 0.195408,0.64484 0.195407,0.18564 0.449435,0.18564 z"
         style="font-style:normal;font-variant:normal;font-weight:300;font-stretch:normal;font-size:56.3021px;line-height:1.25;font-family:Oswald;-inkscape-font-specification:'Oswald Light';text-align:center;text-anchor:middle;fill:#ffffff;stroke-width:0.244258"
         id="path4032" />
      <path
         d="m 104.03902,154.70763 q -0.66438,0 -0.98681,-0.29311 -0.32242,-0.29311 -0.42989,-0.7914 -0.0977,-0.50806 -0.0977,-1.14313 v -1.319 q 0,-0.78163 0.12702,-1.27991 0.12701,-0.50806 0.44944,-0.75232 0.33219,-0.24426 0.93795,-0.24426 0.59599,0 0.90864,0.22472 0.31265,0.22472 0.42013,0.63507 0.10747,0.41036 0.10747,0.94772 v 0.27357 h -0.66438 v -0.27357 q 0,-0.49828 -0.0782,-0.77185 -0.0684,-0.27357 -0.24426,-0.38105 -0.16609,-0.11724 -0.44943,-0.11724 -0.33219,0 -0.50806,0.15632 -0.17587,0.15633 -0.23449,0.51783 -0.0586,0.35174 -0.0586,0.94773 v 1.58279 q 0,0.85002 0.1661,1.20176 0.16609,0.34196 0.64484,0.34196 0.33219,0 0.49829,-0.14656 0.16609,-0.15632 0.21494,-0.4592 0.0489,-0.30288 0.0489,-0.75232 v -0.31265 h 0.66438 v 0.27357 q 0,0.56668 -0.10747,1.00634 -0.0977,0.4299 -0.41036,0.68393 -0.31265,0.24426 -0.91841,0.24426 z"
         style="font-style:normal;font-variant:normal;font-weight:300;font-stretch:normal;font-size:56.3021px;line-height:1.25;font-family:Oswald;-inkscape-font-specification:'Oswald Light';text-align:center;text-anchor:middle;fill:#ffffff;stroke-width:0.244258"
         id="path4034" />
      <path
         d="m 107.82671,154.70763 q -0.57645,0 -0.90864,-0.24426 -0.32242,-0.25403 -0.45921,-0.72301 -0.13678,-0.47874 -0.13678,-1.16267 v -1.56325 q 0,-0.68393 0.13678,-1.1529 0.13679,-0.47875 0.45921,-0.72301 0.33219,-0.25403 0.90864,-0.25403 0.59599,0 0.91841,0.25403 0.32242,0.24426 0.45921,0.72301 0.13678,0.46897 0.13678,1.1529 v 1.56325 q 0,0.68393 -0.13678,1.16267 -0.13679,0.46898 -0.45921,0.72301 -0.32242,0.24426 -0.91841,0.24426 z m 0,-0.53737 q 0.37127,0 0.53737,-0.19541 0.17586,-0.19541 0.21495,-0.54714 0.0391,-0.3615 0.0391,-0.81094 v -1.64141 q 0,-0.45921 -0.0391,-0.80117 -0.0391,-0.35174 -0.21495,-0.54714 -0.1661,-0.20518 -0.53737,-0.20518 -0.37127,0 -0.53737,0.20518 -0.1661,0.1954 -0.20518,0.54714 -0.0391,0.34196 -0.0391,0.80117 v 1.64141 q 0,0.44944 0.0391,0.81094 0.0391,0.35173 0.20518,0.54714 0.1661,0.19541 0.53737,0.19541 z"
         style="font-style:normal;font-variant:normal;font-weight:300;font-stretch:normal;font-size:56.3021px;line-height:1.25;font-family:Oswald;-inkscape-font-specification:'Oswald Light';text-align:center;text-anchor:middle;fill:#ffffff;stroke-width:0.244258"
         id="path4036" />
      <path
         d="m 110.32242,154.61969 v -5.64726 h 0.71324 v 0.58622 q 0.27357,-0.29311 0.61553,-0.47874 0.34196,-0.19541 0.74255,-0.19541 0.28334,0 0.47874,0.14656 0.19541,0.13678 0.29311,0.41035 0.0977,0.2638 0.0977,0.64484 v 4.53344 h -0.71324 v -4.37711 q 0,-0.43967 -0.13678,-0.61553 -0.12702,-0.18564 -0.40059,-0.18564 -0.24426,0 -0.49829,0.14656 -0.25402,0.14655 -0.47874,0.38104 v 4.65068 z"
         style="font-style:normal;font-variant:normal;font-weight:300;font-stretch:normal;font-size:56.3021px;line-height:1.25;font-family:Oswald;-inkscape-font-specification:'Oswald Light';text-align:center;text-anchor:middle;fill:#ffffff;stroke-width:0.244258"
         id="path4038" />
      <path
         d="m 115.60039,154.70763 q -0.67415,0 -1.07473,-0.4299 -0.40059,-0.43966 -0.45921,-1.17244 l 0.59599,-0.18564 q 0.0586,0.65462 0.30288,0.9575 0.24426,0.29311 0.68393,0.29311 0.37127,0 0.56668,-0.20518 0.20517,-0.21495 0.20517,-0.59599 0,-0.27357 -0.16609,-0.54714 -0.1661,-0.28334 -0.51783,-0.58622 l -0.77186,-0.66438 q -0.38104,-0.32243 -0.57645,-0.64485 -0.19541,-0.32242 -0.19541,-0.77185 0,-0.41036 0.1661,-0.68393 0.17587,-0.28334 0.47875,-0.42989 0.30288,-0.15633 0.70346,-0.15633 0.64484,0 0.97704,0.42013 0.33219,0.41035 0.3615,1.06496 l -0.50806,0.1661 q -0.0195,-0.38104 -0.11724,-0.6253 -0.0977,-0.25403 -0.27357,-0.37128 -0.1661,-0.11724 -0.41036,-0.11724 -0.32242,0 -0.5276,0.18564 -0.1954,0.17586 -0.1954,0.49828 0,0.25403 0.0977,0.44944 0.0977,0.19541 0.3615,0.43967 l 0.80117,0.71323 q 0.23449,0.20518 0.44944,0.43967 0.21495,0.23449 0.35173,0.52759 0.13679,0.28334 0.13679,0.67416 0,0.43966 -0.18564,0.74255 -0.17587,0.29311 -0.49829,0.4592 -0.32242,0.15633 -0.76209,0.15633 z"
         style="font-style:normal;font-variant:normal;font-weight:300;font-stretch:normal;font-size:56.3021px;line-height:1.25;font-family:Oswald;-inkscape-font-specification:'Oswald Light';text-align:center;text-anchor:middle;fill:#ffffff;stroke-width:0.244258"
         id="path4040" />
      <path
         d="m 119.19863,154.68809 q -0.41036,0 -0.63507,-0.15633 -0.21495,-0.1661 -0.30288,-0.43966 -0.0782,-0.28335 -0.0782,-0.64485 v -4.00584 h -0.69369 v -0.46898 h 0.69369 v -1.74889 h 0.71324 v 1.74889 h 0.93795 v 0.46898 h -0.93795 v 3.93745 q 0,0.41035 0.0879,0.58622 0.0977,0.1661 0.41036,0.1661 0.0879,0 0.1954,-0.01 0.11725,-0.0195 0.21495,-0.0391 v 0.54714 q -0.14655,0.0293 -0.30288,0.0391 -0.15633,0.0195 -0.30288,0.0195 z"
         style="font-style:normal;font-variant:normal;font-weight:300;font-stretch:normal;font-size:56.3021px;line-height:1.25;font-family:Oswald;-inkscape-font-specification:'Oswald Light';text-align:center;text-anchor:middle;fill:#ffffff;stroke-width:0.244258"
         id="path4042" />
      <path
         d="m 120.63777,154.61969 v -5.64726 h 0.72301 v 0.77186 q 0.27357,-0.44944 0.6253,-0.63507 0.35173,-0.19541 0.67415,-0.19541 0.0293,0 0.0586,0 0.0293,0 0.0684,0.01 v 0.76209 q -0.0684,-0.0293 -0.1661,-0.0391 -0.0977,-0.0195 -0.18564,-0.0195 -0.33219,0 -0.60576,0.15632 -0.2638,0.15633 -0.46897,0.49829 v 4.33803 z"
         style="font-style:normal;font-variant:normal;font-weight:300;font-stretch:normal;font-size:56.3021px;line-height:1.25;font-family:Oswald;-inkscape-font-specification:'Oswald Light';text-align:center;text-anchor:middle;fill:#ffffff;stroke-width:0.244258"
         id="path4044" />
      <path
         d="m 124.31997,154.70763 q -0.28334,0 -0.47875,-0.14656 -0.1954,-0.14655 -0.30288,-0.41035 -0.0977,-0.2638 -0.0977,-0.64485 v -4.53344 h 0.723 v 4.37712 q 0,0.43966 0.12702,0.61553 0.13678,0.17587 0.41035,0.17587 0.25403,0 0.50806,-0.15633 0.2638,-0.15632 0.48852,-0.40058 v -4.61161 h 0.71323 v 5.64726 h -0.71323 v -0.6253 q -0.27357,0.31265 -0.62531,0.51783 -0.35173,0.19541 -0.75231,0.19541 z"
         style="font-style:normal;font-variant:normal;font-weight:300;font-stretch:normal;font-size:56.3021px;line-height:1.25;font-family:Oswald;-inkscape-font-specification:'Oswald Light';text-align:center;text-anchor:middle;fill:#ffffff;stroke-width:0.244258"
         id="path4046" />
      <path
         d="m 127.5941,154.61969 v -5.64726 h 0.71324 v 5.64726 z m 0,-6.42888 v -0.96727 h 0.71324 v 0.96727 z"
         style="font-style:normal;font-variant:normal;font-weight:300;font-stretch:normal;font-size:56.3021px;line-height:1.25;font-family:Oswald;-inkscape-font-specification:'Oswald Light';text-align:center;text-anchor:middle;fill:#ffffff;stroke-width:0.244258"
         id="path4048" />
      <path
         d="m 129.5494,154.61969 v -5.64726 h 0.723 v 0.77186 q 0.27357,-0.44944 0.6253,-0.63507 0.35174,-0.19541 0.67416,-0.19541 0.0293,0 0.0586,0 0.0293,0 0.0684,0.01 v 0.76209 q -0.0684,-0.0293 -0.16609,-0.0391 -0.0977,-0.0195 -0.18564,-0.0195 -0.33219,0 -0.60576,0.15632 -0.2638,0.15633 -0.46898,0.49829 v 4.33803 z"
         style="font-style:normal;font-variant:normal;font-weight:300;font-stretch:normal;font-size:56.3021px;line-height:1.25;font-family:Oswald;-inkscape-font-specification:'Oswald Light';text-align:center;text-anchor:middle;fill:#ffffff;stroke-width:0.244258"
         id="path4050" />
      <path
         d="m 135.78288,154.70763 q -0.57645,0 -0.90865,-0.24426 -0.32242,-0.25403 -0.4592,-0.72301 -0.13679,-0.47874 -0.13679,-1.16267 v -1.56325 q 0,-0.68393 0.13679,-1.1529 0.13678,-0.47875 0.4592,-0.72301 0.3322,-0.25403 0.90865,-0.25403 0.59599,0 0.91841,0.25403 0.32242,0.24426 0.4592,0.72301 0.13679,0.46897 0.13679,1.1529 v 1.56325 q 0,0.68393 -0.13679,1.16267 -0.13678,0.46898 -0.4592,0.72301 -0.32242,0.24426 -0.91841,0.24426 z m 0,-0.53737 q 0.37127,0 0.53736,-0.19541 0.17587,-0.19541 0.21495,-0.54714 0.0391,-0.3615 0.0391,-0.81094 v -1.64141 q 0,-0.45921 -0.0391,-0.80117 -0.0391,-0.35174 -0.21495,-0.54714 -0.16609,-0.20518 -0.53736,-0.20518 -0.37128,0 -0.53737,0.20518 -0.1661,0.1954 -0.20518,0.54714 -0.0391,0.34196 -0.0391,0.80117 v 1.64141 q 0,0.44944 0.0391,0.81094 0.0391,0.35173 0.20518,0.54714 0.16609,0.19541 0.53737,0.19541 z"
         style="font-style:normal;font-variant:normal;font-weight:300;font-stretch:normal;font-size:56.3021px;line-height:1.25;font-family:Oswald;-inkscape-font-specification:'Oswald Light';text-align:center;text-anchor:middle;fill:#ffffff;stroke-width:0.244258"
         id="path4052" />
      <path
         d="m 140.40975,154.61969 v -7.91398 h 2.84317 v 0.55691 h -2.10063 v 2.97996 h 1.74889 v 0.54714 h -1.74889 v 3.82997 z"
         style="font-style:normal;font-variant:normal;font-weight:300;font-stretch:normal;font-size:56.3021px;line-height:1.25;font-family:Oswald;-inkscape-font-specification:'Oswald Light';text-align:center;text-anchor:middle;fill:#ffffff;stroke-width:0.244258"
         id="path4054" />
      <path
         d="m 144.87204,154.70763 q -0.28334,0 -0.47874,-0.14656 -0.19541,-0.14655 -0.30288,-0.41035 -0.0977,-0.2638 -0.0977,-0.64485 v -4.53344 h 0.72301 v 4.37712 q 0,0.43966 0.12701,0.61553 0.13679,0.17587 0.41036,0.17587 0.25403,0 0.50806,-0.15633 0.2638,-0.15632 0.48851,-0.40058 v -4.61161 h 0.71324 v 5.64726 h -0.71324 v -0.6253 q -0.27357,0.31265 -0.6253,0.51783 -0.35173,0.19541 -0.75232,0.19541 z"
         style="font-style:normal;font-variant:normal;font-weight:300;font-stretch:normal;font-size:56.3021px;line-height:1.25;font-family:Oswald;-inkscape-font-specification:'Oswald Light';text-align:center;text-anchor:middle;fill:#ffffff;stroke-width:0.244258"
         id="path4056" />
      <path
         d="m 149.40656,154.68809 q -0.41036,0 -0.63508,-0.15633 -0.21494,-0.1661 -0.30288,-0.43966 -0.0782,-0.28335 -0.0782,-0.64485 v -4.00584 h -0.69369 v -0.46898 h 0.69369 v -1.74889 h 0.71324 v 1.74889 h 0.93795 v 0.46898 h -0.93795 v 3.93745 q 0,0.41035 0.0879,0.58622 0.0977,0.1661 0.41035,0.1661 0.0879,0 0.19541,-0.01 0.11724,-0.0195 0.21495,-0.0391 v 0.54714 q -0.14656,0.0293 -0.30288,0.0391 -0.15633,0.0195 -0.30288,0.0195 z"
         style="font-style:normal;font-variant:normal;font-weight:300;font-stretch:normal;font-size:56.3021px;line-height:1.25;font-family:Oswald;-inkscape-font-specification:'Oswald Light';text-align:center;text-anchor:middle;fill:#ffffff;stroke-width:0.244258"
         id="path4058" />
      <path
         d="m 151.62733,154.70763 q -0.28334,0 -0.47875,-0.14656 -0.19541,-0.14655 -0.30288,-0.41035 -0.0977,-0.2638 -0.0977,-0.64485 v -4.53344 h 0.723 v 4.37712 q 0,0.43966 0.12702,0.61553 0.13678,0.17587 0.41035,0.17587 0.25403,0 0.50806,-0.15633 0.2638,-0.15632 0.48852,-0.40058 v -4.61161 h 0.71323 v 5.64726 h -0.71323 v -0.6253 q -0.27357,0.31265 -0.62531,0.51783 -0.35173,0.19541 -0.75231,0.19541 z"
         style="font-style:normal;font-variant:normal;font-weight:300;font-stretch:normal;font-size:56.3021px;line-height:1.25;font-family:Oswald;-inkscape-font-specification:'Oswald Light';text-align:center;text-anchor:middle;fill:#ffffff;stroke-width:0.244258"
         id="path4060" />
      <path
         d="m 154.87215,154.61969 v -5.64726 h 0.723 v 0.77186 q 0.27357,-0.44944 0.62531,-0.63507 0.35173,-0.19541 0.67415,-0.19541 0.0293,0 0.0586,0 0.0293,0 0.0684,0.01 v 0.76209 q -0.0684,-0.0293 -0.16609,-0.0391 -0.0977,-0.0195 -0.18564,-0.0195 -0.33219,0 -0.60576,0.15632 -0.2638,0.15633 -0.46898,0.49829 v 4.33803 z"
         style="font-style:normal;font-variant:normal;font-weight:300;font-stretch:normal;font-size:56.3021px;line-height:1.25;font-family:Oswald;-inkscape-font-specification:'Oswald Light';text-align:center;text-anchor:middle;fill:#ffffff;stroke-width:0.244258"
         id="path4062" />
      <path
         d="m 159.10195,154.70763 q -0.57645,0 -0.90865,-0.24426 -0.32242,-0.25403 -0.4592,-0.72301 -0.13679,-0.47874 -0.13679,-1.16267 v -1.56325 q 0,-0.68393 0.13679,-1.1529 0.13678,-0.47875 0.4592,-0.72301 0.3322,-0.25403 0.90865,-0.25403 0.59599,0 0.91841,0.25403 0.32242,0.24426 0.45921,0.72301 0.13678,0.46897 0.13678,1.1529 v 1.56325 q 0,0.68393 -0.13678,1.16267 -0.13679,0.46898 -0.45921,0.72301 -0.32242,0.24426 -0.91841,0.24426 z m 0,-0.53737 q 0.37127,0 0.53737,-0.19541 0.17586,-0.19541 0.21494,-0.54714 0.0391,-0.3615 0.0391,-0.81094 v -1.64141 q 0,-0.45921 -0.0391,-0.80117 -0.0391,-0.35174 -0.21494,-0.54714 -0.1661,-0.20518 -0.53737,-0.20518 -0.37128,0 -0.53737,0.20518 -0.1661,0.1954 -0.20518,0.54714 -0.0391,0.34196 -0.0391,0.80117 v 1.64141 q 0,0.44944 0.0391,0.81094 0.0391,0.35173 0.20518,0.54714 0.16609,0.19541 0.53737,0.19541 z"
         style="font-style:normal;font-variant:normal;font-weight:300;font-stretch:normal;font-size:56.3021px;line-height:1.25;font-family:Oswald;-inkscape-font-specification:'Oswald Light';text-align:center;text-anchor:middle;fill:#ffffff;stroke-width:0.244258"
         id="path4064" />
    </g>
  </g>
</svg>
